<svg width="28" height="28" viewBox="0 0 28 28" fill="none" xmlns="http://www.w3.org/2000/svg">
<path fill-rule="evenodd" clip-rule="evenodd" d="M13.9296 14.6709L25.2196 25.9921L25.9258 25.284L14.6357 13.9628L25.8476 2.72011L25.1414 2.01203L13.9296 13.2548L2.70575 2L1.99961 2.70808L13.2234 13.9628L1.92139 25.2961L2.62752 26.0041L13.9296 14.6709Z" fill="white"/>
<path d="M25.2196 25.9921L24.5116 26.6982L25.2196 27.4083L25.9277 26.6982L25.2196 25.9921ZM13.9296 14.6709L14.6377 13.9648L13.9296 13.2548L13.2215 13.9648L13.9296 14.6709ZM25.9258 25.284L26.6339 25.9902L27.338 25.284L26.6339 24.5779L25.9258 25.284ZM14.6357 13.9628L13.9276 13.2567L13.2234 13.9628L13.9276 14.669L14.6357 13.9628ZM25.8476 2.72011L26.5556 3.42624L27.2598 2.72011L26.5556 2.01397L25.8476 2.72011ZM25.1414 2.01203L25.8495 1.3059L25.1414 0.595864L24.4333 1.3059L25.1414 2.01203ZM13.9296 13.2548L13.2215 13.9609L13.9296 14.6709L14.6377 13.9609L13.9296 13.2548ZM2.70575 2L3.41383 1.29387L2.70575 0.583836L1.99767 1.29387L2.70575 2ZM1.99961 2.70808L1.29153 2.00195L0.587341 2.70808L1.29153 3.41421L1.99961 2.70808ZM13.2234 13.9628L13.9315 14.669L14.6357 13.9628L13.9315 13.2567L13.2234 13.9628ZM1.92139 25.2961L1.21331 24.5899L0.509115 25.2961L1.21331 26.0022L1.92139 25.2961ZM2.62752 26.0041L1.91944 26.7103L2.62752 27.4203L3.3356 26.7103L2.62752 26.0041ZM25.9277 25.286L14.6377 13.9648L13.2215 15.3771L24.5116 26.6982L25.9277 25.286ZM25.2177 24.5779L24.5116 25.286L25.9277 26.6982L26.6339 25.9902L25.2177 24.5779ZM13.9276 14.669L25.2177 25.9902L26.6339 24.5779L15.3438 13.2567L13.9276 14.669ZM25.1395 2.01397L13.9276 13.2567L15.3438 14.669L26.5556 3.42624L25.1395 2.01397ZM24.4333 2.71816L25.1395 3.42624L26.5556 2.01397L25.8495 1.3059L24.4333 2.71816ZM14.6377 13.9609L25.8495 2.71816L24.4333 1.3059L13.2215 12.5486L14.6377 13.9609ZM1.99767 2.70613L13.2215 13.9609L14.6377 12.5486L3.41383 1.29387L1.99767 2.70613ZM2.70769 3.41421L3.41383 2.70613L1.99767 1.29387L1.29153 2.00195L2.70769 3.41421ZM13.9315 13.2567L2.70769 2.00195L1.29153 3.41421L12.5154 14.669L13.9315 13.2567ZM2.62947 26.0022L13.9315 14.669L12.5154 13.2567L1.21331 24.5899L2.62947 26.0022ZM3.3356 25.298L2.62947 24.5899L1.21331 26.0022L1.91944 26.7103L3.3356 25.298ZM13.2215 13.9648L1.91944 25.298L3.3356 26.7103L14.6377 15.3771L13.2215 13.9648Z" fill="white"/>
</svg>
